<svg xmlns="http://www.w3.org/2000/svg" xmlns:xlink="http://www.w3.org/1999/xlink" width="400" zoomAndPan="magnify" viewBox="0 0 300 112.499997" height="150" preserveAspectRatio="xMidYMid meet" version="1.0"><defs><clipPath id="96c61460b5"><path d="M 0.664062 0 L 299.335938 0 L 299.335938 112.003906 L 0.664062 112.003906 Z M 0.664062 0 " clip-rule="nonzero"/></clipPath><clipPath id="21ad4f8977"><path d="M 0.664062 6.222656 L 299.335938 6.222656 L 299.335938 76 L 0.664062 76 Z M 0.664062 6.222656 " clip-rule="nonzero"/></clipPath><clipPath id="15ec767911"><path d="M 183 81 L 299.335938 81 L 299.335938 84.625 L 183 84.625 Z M 183 81 " clip-rule="nonzero"/></clipPath><clipPath id="1b477bb9fc"><path d="M 0.664062 81 L 117 81 L 117 84.625 L 0.664062 84.625 Z M 0.664062 81 " clip-rule="nonzero"/></clipPath></defs><g clip-path="url(#96c61460b5)"><path fill="#ffffff" d="M 0.664062 0 L 299.335938 0 L 299.335938 119.46875 L 0.664062 119.46875 Z M 0.664062 0 " fill-opacity="1" fill-rule="nonzero"/><path fill="#ffffff" d="M 0.664062 0 L 299.335938 0 L 299.335938 112.003906 L 0.664062 112.003906 Z M 0.664062 0 " fill-opacity="1" fill-rule="nonzero"/><path fill="#ffffff" d="M 0.664062 0 L 299.335938 0 L 299.335938 112.003906 L 0.664062 112.003906 Z M 0.664062 0 " fill-opacity="1" fill-rule="nonzero"/></g><path fill="#000000" d="M 92.871094 75.519531 L 149.894531 17.382812 L 206.957031 75.519531 L 195.28125 75.519531 L 195.28125 69.683594 L 149.894531 23.445312 L 104.878906 69.34375 L 104.878906 75.519531 Z M 92.871094 75.519531 " fill-opacity="1" fill-rule="evenodd"/><g clip-path="url(#21ad4f8977)"><path fill="#c4942e" d="M 40.117188 35.375 L 75.726562 71.683594 L 85.792969 71.683594 L 150 6.222656 L 214.207031 71.683594 L 224.273438 71.683594 L 259.882812 35.375 L 299.257812 75.519531 L 292.421875 75.519531 L 259.890625 42.351562 L 227.359375 75.519531 C 221.949219 75.519531 216.546875 75.519531 211.132812 75.519531 L 150 13.195312 L 88.875 75.527344 C 83.460938 75.527344 78.058594 75.527344 72.644531 75.527344 L 40.117188 42.359375 L 7.585938 75.527344 L 0.742188 75.527344 Z M 40.117188 35.375 " fill-opacity="1" fill-rule="evenodd"/></g><path fill="#c4942e" d="M 74.59375 36.234375 L 96.617188 13.890625 L 118.136719 35.714844 L 115.894531 37.996094 L 96.617188 18.460938 L 78.816406 36.511719 Z M 74.59375 36.234375 " fill-opacity="1" fill-rule="evenodd"/><path fill="#000000" d="M 40.0625 44.128906 L 70.480469 75.519531 L 66.050781 75.519531 L 40.0625 48.546875 L 13.582031 75.519531 L 9.25 75.519531 Z M 40.0625 44.128906 " fill-opacity="1" fill-rule="evenodd"/><path fill="#c4942e" d="M 43.257812 35.578125 L 113.773438 40.152344 L 84.917969 69.578125 L 76.605469 69.578125 Z M 43.257812 35.578125 " fill-opacity="1" fill-rule="evenodd"/><path fill="#c4942e" d="M 98.355469 14.152344 L 133.980469 19.558594 L 118.871094 34.960938 Z M 98.355469 14.152344 " fill-opacity="1" fill-rule="evenodd"/><path fill="#000000" d="M 40.183594 71.902344 L 35.785156 71.902344 L 35.785156 67.484375 L 40.183594 67.484375 Z M 46.140625 67.484375 L 46.140625 71.902344 L 41.742188 71.902344 L 41.742188 67.484375 Z M 41.734375 61.496094 L 46.136719 61.496094 L 46.136719 65.914062 L 41.734375 65.914062 Z M 35.785156 61.496094 L 40.183594 61.496094 L 40.183594 65.914062 L 35.785156 65.914062 Z M 35.785156 61.496094 " fill-opacity="1" fill-rule="evenodd"/><path fill="#000000" d="M 97.292969 35.234375 L 94.757812 35.234375 L 94.757812 32.6875 L 97.292969 32.6875 Z M 100.71875 32.695312 L 100.71875 35.242188 L 98.183594 35.242188 L 98.183594 32.695312 Z M 98.183594 29.253906 L 100.71875 29.253906 L 100.71875 31.800781 L 98.183594 31.800781 Z M 94.757812 29.253906 L 97.292969 29.253906 L 97.292969 31.800781 L 94.757812 31.800781 Z M 94.757812 29.253906 " fill-opacity="1" fill-rule="evenodd"/><path fill="#000000" d="M 11.992188 75.519531 L 16.363281 75.519531 L 16.363281 71.566406 Z M 11.992188 75.519531 " fill-opacity="1" fill-rule="evenodd"/><path fill="#000000" d="M 67.632812 75.519531 L 63.261719 75.519531 L 63.261719 71.566406 Z M 67.632812 75.519531 " fill-opacity="1" fill-rule="evenodd"/><path fill="#c4942e" d="M 225.398438 36.234375 L 203.382812 13.890625 L 181.863281 35.714844 L 184.105469 37.996094 L 203.382812 18.460938 L 221.175781 36.511719 Z M 225.398438 36.234375 " fill-opacity="1" fill-rule="evenodd"/><path fill="#000000" d="M 259.9375 44.128906 L 229.519531 75.519531 L 233.941406 75.519531 L 259.9375 48.546875 L 286.417969 75.519531 L 290.75 75.519531 Z M 259.9375 44.128906 " fill-opacity="1" fill-rule="evenodd"/><path fill="#c4942e" d="M 256.734375 35.578125 L 186.226562 40.152344 L 215.082031 69.578125 L 223.394531 69.578125 Z M 256.734375 35.578125 " fill-opacity="1" fill-rule="evenodd"/><path fill="#c4942e" d="M 201.644531 14.152344 L 166.019531 19.558594 L 181.128906 34.960938 Z M 201.644531 14.152344 " fill-opacity="1" fill-rule="evenodd"/><path fill="#000000" d="M 259.816406 71.902344 L 264.214844 71.902344 L 264.214844 67.484375 L 259.816406 67.484375 Z M 253.859375 67.484375 L 253.859375 71.902344 L 258.257812 71.902344 L 258.257812 67.484375 Z M 258.257812 61.496094 L 253.859375 61.496094 L 253.859375 65.914062 L 258.257812 65.914062 Z M 264.214844 61.496094 L 259.816406 61.496094 L 259.816406 65.914062 L 264.214844 65.914062 Z M 264.214844 61.496094 " fill-opacity="1" fill-rule="evenodd"/><path fill="#000000" d="M 202.707031 35.234375 L 205.242188 35.234375 L 205.242188 32.6875 L 202.707031 32.6875 Z M 199.28125 32.695312 L 199.28125 35.242188 L 201.816406 35.242188 L 201.816406 32.695312 Z M 201.816406 29.253906 L 199.28125 29.253906 L 199.28125 31.800781 L 201.816406 31.800781 Z M 205.242188 29.253906 L 202.707031 29.253906 L 202.707031 31.800781 L 205.242188 31.800781 Z M 205.242188 29.253906 " fill-opacity="1" fill-rule="evenodd"/><path fill="#000000" d="M 288.007812 75.519531 L 283.636719 75.519531 L 283.636719 71.566406 Z M 288.007812 75.519531 " fill-opacity="1" fill-rule="evenodd"/><path fill="#000000" d="M 232.359375 75.519531 L 236.738281 75.519531 L 236.738281 71.566406 Z M 232.359375 75.519531 " fill-opacity="1" fill-rule="evenodd"/><path fill="#000000" d="M 148.652344 67.273438 L 141.484375 67.273438 L 141.484375 60.070312 L 148.652344 60.070312 Z M 158.351562 60.070312 L 158.351562 67.277344 L 151.175781 67.277344 L 151.175781 60.070312 Z M 151.175781 50.324219 L 158.34375 50.324219 L 158.34375 57.527344 L 151.175781 57.527344 Z M 141.476562 50.324219 L 148.644531 50.324219 L 148.644531 57.527344 L 141.476562 57.527344 Z M 141.476562 50.324219 " fill-opacity="1" fill-rule="evenodd"/><g clip-path="url(#15ec767911)"><path fill="#c4942e" d="M 183.738281 81.414062 L 299.257812 81.414062 L 299.257812 84.625 L 183.738281 84.625 Z M 183.738281 81.414062 " fill-opacity="1" fill-rule="evenodd"/></g><g clip-path="url(#1b477bb9fc)"><path fill="#c4942e" d="M 0.742188 81.414062 L 116.261719 81.414062 L 116.261719 84.625 L 0.742188 84.625 Z M 0.742188 81.414062 " fill-opacity="1" fill-rule="evenodd"/></g></svg>